<svg width="290" height="347" viewBox="0 0 290 347" fill="none" xmlns="http://www.w3.org/2000/svg">
<path d="M285.267 248.675C267.368 228.557 245.648 212.502 221.474 201.521C197.3 190.54 171.196 184.871 144.806 184.871C118.415 184.871 92.3113 190.54 68.1372 201.521C43.9631 212.502 22.2427 228.557 4.34416 248.675C1.58079 251.845 0.0350016 255.957 0 260.231V329.564C0.0585732 334.121 1.84473 338.471 4.97183 341.672C8.09892 344.873 12.3153 346.667 16.7083 346.667H272.903C277.334 346.667 281.584 344.84 284.717 341.59C287.851 338.339 289.611 333.93 289.611 329.333V260C289.522 255.806 287.98 251.786 285.267 248.675V248.675Z" fill="#4AAEC1"/>
<path d="M144.805 161.778C187.868 161.778 222.778 125.563 222.778 80.8889C222.778 36.2152 187.868 0 144.805 0C101.743 0 66.8333 36.2152 66.8333 80.8889C66.8333 125.563 101.743 161.778 144.805 161.778Z" fill="#4AAEC1"/>
</svg>
