<svg width="612" height="590" viewBox="0 0 612 590" fill="none" xmlns="http://www.w3.org/2000/svg">
<path d="M305.813 0C245.329 0 186.203 17.2941 135.912 49.6954C85.6217 82.0967 46.425 128.15 23.2787 182.031C0.132503 235.913 -5.9236 295.202 5.87624 352.402C17.6761 409.602 46.8019 462.144 89.5705 503.383C132.339 544.622 186.83 572.706 246.152 584.084C305.473 595.462 366.962 589.622 422.842 567.304C478.722 544.986 526.483 507.191 560.086 458.699C593.69 410.207 611.625 353.196 611.625 294.875C611.625 216.669 579.406 141.667 522.055 86.3669C464.704 31.0671 386.919 0 305.813 0V0ZM480.563 482.731V469.925C481.17 441.205 470.07 413.4 449.649 392.484C429.227 371.568 401.112 359.209 371.344 358.062H240.281C210.538 359.215 182.452 371.579 162.067 392.496C141.682 413.412 130.627 441.209 131.281 469.904C131.281 470.136 131.063 470.368 131.063 470.599V482.921C91.436 448.814 63.4855 403.908 50.9106 354.146C38.3357 304.384 41.7295 252.114 60.6427 204.253C79.5558 156.392 113.097 115.198 156.825 86.1227C200.554 57.0475 252.409 41.4625 305.527 41.4305C358.644 41.3985 410.519 56.921 454.285 85.9434C498.052 114.966 531.646 156.12 550.621 203.958C569.597 251.796 573.058 304.062 560.548 353.839C548.037 403.616 520.145 448.556 480.563 482.71V482.731Z" fill="#4AAEC1"/>
<path d="M305.813 105.312C284.211 105.313 263.095 111.489 245.134 123.061C227.173 134.633 213.174 151.08 204.908 170.324C196.641 189.567 194.478 210.742 198.692 231.17C202.907 251.599 213.309 270.364 228.583 285.092C243.858 299.82 263.319 309.85 284.505 313.914C305.692 317.978 327.652 315.892 347.609 307.921C367.566 299.95 384.624 286.452 396.625 269.134C408.626 251.815 415.032 231.454 415.032 210.625C415.032 182.694 403.525 155.908 383.042 136.158C362.56 116.408 334.779 105.312 305.813 105.312V105.312Z" fill="#4AAEC1"/>
</svg>
