<svg width="1920" height="389" viewBox="0 0 1920 389" fill="none" xmlns="http://www.w3.org/2000/svg">
<path fill-rule="evenodd" clip-rule="evenodd" d="M1920 0L1866.67 7C1813.33 15 1706.67 29 1600 22C1493.33 15 1386.67 -14 1280 15C1173.33 43 1039.5 103.5 932.836 124.5C826.17 146.5 746.667 130 640 94C533.333 58 426.667 29 320 51C213.333 72 232.301 82.5 107.782 124.5L6.4373e-06 147V389H53.3334C106.667 389 213.333 389 320 389C426.667 389 533.333 389 640 389C746.667 389 853.333 389 960 389C1066.67 389 1173.33 389 1280 389C1386.67 389 1493.33 389 1600 389C1706.67 389 1813.33 389 1866.67 389H1920V0Z" fill="#637EB2"/>
</svg>
